<svg xmlns="http://www.w3.org/2000/svg" viewBox="0 0 1240.12 228.48"><defs><style>.cls-1,.cls-3{fill:#3d3d3d;}.cls-1{fill-rule:evenodd;}.cls-2{fill:#fb923c;}</style></defs><g id="Layer_2" data-name="Layer 2"><g id="Layer_1-2" data-name="Layer 1"><path class="cls-1" d="M114.24,0A114.24,114.24,0,1,1,33.46,33.46,113.88,113.88,0,0,1,114.24,0Zm0,93.4a20.84,20.84,0,1,0,20.85,20.84A20.84,20.84,0,0,0,114.24,93.4ZM163.13,88c10.18,2.42,25.5,8.92,36.6,9,7.3.07,7.61-1.11,7.74-8.19a96.64,96.64,0,0,0-186.55.35c.15,7.39,1.46,8.25,9.1,7.79,21.41-1.32,60.38-26.23,133.11-9ZM19.67,134A96.7,96.7,0,0,0,91,208a23.81,23.81,0,0,0,5.54-.87c8-17.61-8.64-47.82-17.17-57.39-4.91-5.51-14.92-11.37-24.33-14.71-19.07-6.77-32.72-9.29-35.35-1Zm115.62,74.51a96.71,96.71,0,0,0,72.65-70.73c.53-2.09,1.22-3.89.77-6-15.11-8.86-48.66,8-57.56,16-13.19,11.88-25.32,46.49-20.59,56.51A7.91,7.91,0,0,0,135.29,208.54Z"/><path class="cls-2" d="M270.12,116.45v-.4c0-40.8,31.4-72.8,73.8-72.8,28.6,0,47,12,59.41,29.2l-29.21,22.6c-8-10-17.2-16.4-30.6-16.4-19.6,0-33.4,16.6-33.4,37v.4c0,21,13.8,37.4,33.4,37.4,14.6,0,23.2-6.8,31.6-17l29.21,20.8c-13.2,18.2-31,31.6-62,31.6C302.32,188.85,270.12,158.25,270.12,116.45Z"/><path class="cls-2" d="M413.12,155.48v-.93c0-22.27,16.9-33.8,42.16-33.8a82.66,82.66,0,0,1,25.84,4.17v-1.44c0-11.2-7.11-17.6-21.94-17.6-11.59,0-20.53,2.2-30.28,6L421,85.08c12.4-5,25.61-8.4,44.51-8.4,19.71,0,33.12,4.6,41.86,13.2,8.33,8,11.78,19.2,11.78,34.4v62.2h-38v-11.2c-7.37,8.2-17.54,13.6-31.7,13.6C428.88,188.88,413.12,177.08,413.12,155.48Zm69-8.6v-5a39.52,39.52,0,0,0-14.7-2.78c-10.94,0-17.3,5.37-17.3,13.31v.4c0,7.36,5.57,11.73,13.32,11.73C474.37,164.57,482.12,157.61,482.12,146.88Z"/><path class="cls-2" d="M538.12,77.48h38V99.17c6.17-14.72,16.11-24.27,34-23.48v39.79h-3.18c-19.68,0-30.82,11.34-30.82,36.21v33.79h-38Z"/><path class="cls-3" d="M613.43,165.28l22-26.33c14.08,11.22,29.8,17.14,46.33,17.14,10.61,0,16.32-3.67,16.32-9.79v-.2c0-5.77-4.57-8.95-23.47-13.33C645,126,622.12,117.65,622.12,89v-.1c0-26.54,21-45.72,55.31-45.72,24.29,0,43.27,6.53,58.78,19l-19.8,28C703.35,80.94,689.06,76,676.41,76c-9.59,0-14.29,4.08-14.29,9.18v.18c0,6.37,4.78,9.15,24.08,13.53,32,7,51.92,17.31,51.92,43.37v.12c0,29.18-23.06,46.53-57.75,46.53C655.06,189,631,181,613.43,165.28Z"/><path class="cls-3" d="M750.12,132.48v-.4c0-31.6,22.6-56.6,54.6-56.6,37.4,0,54.6,27.4,54.6,59.2,0,2.4,0,5.2-.2,7.8h-72.4c3,11.8,11.6,17.8,23.4,17.8,9,0,16.2-3.4,24-11l21,17.4c-10.4,13.2-25.4,22-47,22C774.12,188.68,750.12,166.08,750.12,132.48Zm73.53-9c-1.4-12-8.4-19.6-18.8-19.6-10,0-16.8,7.8-18.8,19.6Z"/><path class="cls-3" d="M876.12,40.48h38v146h-38Z"/><path class="cls-3" d="M931.12,132.48v-.4c0-31.6,22.6-56.6,54.6-56.6,37.4,0,54.6,27.4,54.6,59.2,0,2.4,0,5.2-.2,7.8h-72.4c3,11.8,11.6,17.8,23.4,17.8,9,0,16.2-3.4,24-11l21,17.4c-10.4,13.2-25.4,22-47,22C955.12,188.68,931.12,166.08,931.12,132.48Zm73.53-9c-1.4-12-8.4-19.6-18.8-19.6-10,0-16.8,7.8-18.8,19.6Z"/><path class="cls-3" d="M1052.12,132.45v-.4c0-30.6,23.8-56.4,58-56.4,22.2,0,37,9.6,46.2,24.2l-25.8,19.2c-5.2-7.2-11-11.4-20.2-11.4-12.2,0-21.2,10.8-21.2,24v.4c0,14,8.8,24.6,21.6,24.6,9,0,14.8-4.2,20.8-11.2l25.4,18.4c-10,14.8-24.4,24.8-48.2,24.8C1076.12,188.65,1052.12,163.05,1052.12,132.45Z"/><path class="cls-3" d="M1177.12,152.39V108.48h-13v-31h13v-27h38v27h25v31h-25v36.6c0,7.6,3.43,10.8,10.49,10.8a33.77,33.77,0,0,0,14.51-3.6v29.81c-6.82,3.81-15.85,6.22-26.48,6.22C1190.77,188.31,1177.12,178.27,1177.12,152.39Z"/></g></g></svg>