<svg xmlns="http://www.w3.org/2000/svg" viewBox="0 0 1248.12 230.65"><defs><style>.cls-1,.cls-3{fill:#3d3d3d;}.cls-1{fill-rule:evenodd;}.cls-2{font-size:200px;fill:#fb923c;font-family:Gotham-Black, Gotham Black;font-weight:800;}</style></defs><g id="Layer_2" data-name="Layer 2"><g id="Layer_1-2" data-name="Layer 1"><path class="cls-1" d="M114.24,0A114.24,114.24,0,1,1,33.46,33.46,113.88,113.88,0,0,1,114.24,0Zm0,93.4a20.84,20.84,0,1,0,20.85,20.84A20.84,20.84,0,0,0,114.24,93.4ZM163.13,88c10.18,2.42,25.5,8.92,36.6,9,7.3.07,7.61-1.11,7.74-8.19a96.64,96.64,0,0,0-186.55.35c.15,7.39,1.46,8.25,9.1,7.79,21.41-1.32,60.38-26.23,133.11-9ZM19.67,134A96.7,96.7,0,0,0,91,208a23.81,23.81,0,0,0,5.54-.87c8-17.61-8.64-47.82-17.17-57.39-4.91-5.51-14.92-11.37-24.33-14.71-19.07-6.77-32.72-9.29-35.35-1Zm115.62,74.51a96.71,96.71,0,0,0,72.65-70.73c.53-2.09,1.22-3.89.77-6-15.11-8.86-48.66,8-57.56,16-13.19,11.88-25.32,46.49-20.59,56.51A7.91,7.91,0,0,0,135.29,208.54Z"/><text class="cls-2" transform="translate(253.45 196.05)">Car<tspan class="cls-3" x="351.4" y="0">Select</tspan></text></g></g></svg>